<?xml version="1.0" encoding="utf-8" standalone="no"?>
<!DOCTYPE svg PUBLIC "-//W3C//DTD SVG 1.1//EN" "http://www.w3.org/Graphics/SVG/1.1/DTD/svg11.dtd">

<svg width="210mm" height="297mm" viewBox="0 0 210 297" xmlns="http://www.w3.org/2000/svg" xmlns:xlink="http://www.w3.org/1999/xlink" version="1.1" style="stroke:black; fill:none; stroke-width:0.5pt; stroke-linejoin:round; text-anchor:middle" font-family="Helvetica, Arial, FreeSans, Sans, sans, sans-serif">

<g>

<rect x="30.0" y="36.0" width="25.0" height="25.0" fill="black" stroke="none" />

<rect x="30.0" y="86.0" width="25.0" height="25.0" fill="black" stroke="none" />

<rect x="30.0" y="136.0" width="25.0" height="25.0" fill="black" stroke="none" />

<rect x="30.0" y="186.0" width="25.0" height="25.0" fill="black" stroke="none" />

<rect x="30.0" y="236.0" width="25.0" height="25.0" fill="black" stroke="none" />

<rect x="55.0" y="61.0" width="25.0" height="25.0" fill="black" stroke="none" />

<rect x="55.0" y="111.0" width="25.0" height="25.0" fill="black" stroke="none" />

<rect x="55.0" y="161.0" width="25.0" height="25.0" fill="black" stroke="none" />

<rect x="55.0" y="211.0" width="25.0" height="25.0" fill="black" stroke="none" />

<rect x="80.0" y="36.0" width="25.0" height="25.0" fill="black" stroke="none" />

<rect x="80.0" y="86.0" width="25.0" height="25.0" fill="black" stroke="none" />

<rect x="80.0" y="136.0" width="25.0" height="25.0" fill="black" stroke="none" />

<rect x="80.0" y="186.0" width="25.0" height="25.0" fill="black" stroke="none" />

<rect x="80.0" y="236.0" width="25.0" height="25.0" fill="black" stroke="none" />

<rect x="105.0" y="61.0" width="25.0" height="25.0" fill="black" stroke="none" />

<rect x="105.0" y="111.0" width="25.0" height="25.0" fill="black" stroke="none" />

<rect x="105.0" y="161.0" width="25.0" height="25.0" fill="black" stroke="none" />

<rect x="105.0" y="211.0" width="25.0" height="25.0" fill="black" stroke="none" />

<rect x="130.0" y="36.0" width="25.0" height="25.0" fill="black" stroke="none" />

<rect x="130.0" y="86.0" width="25.0" height="25.0" fill="black" stroke="none" />

<rect x="130.0" y="136.0" width="25.0" height="25.0" fill="black" stroke="none" />

<rect x="130.0" y="186.0" width="25.0" height="25.0" fill="black" stroke="none" />

<rect x="130.0" y="236.0" width="25.0" height="25.0" fill="black" stroke="none" />

<rect x="155.0" y="61.0" width="25.0" height="25.0" fill="black" stroke="none" />

<rect x="155.0" y="111.0" width="25.0" height="25.0" fill="black" stroke="none" />

<rect x="155.0" y="161.0" width="25.0" height="25.0" fill="black" stroke="none" />

<rect x="155.0" y="211.0" width="25.0" height="25.0" fill="black" stroke="none" />

</g>

</svg>

